<mxfile host="65bd71144e">
    <diagram id="-snx5J6JJvGNMYjHeNZo" name="Page-1">
        <mxGraphModel dx="911" dy="645" grid="1" gridSize="10" guides="1" tooltips="1" connect="1" arrows="1" fold="1" page="1" pageScale="1" pageWidth="827" pageHeight="1169" math="0" shadow="0">
            <root>
                <mxCell id="0"/>
                <mxCell id="1" parent="0"/>
                <mxCell id="2" value="http://ics2o.mths.ca" style="swimlane;whiteSpace=wrap;html=1;startSize=50;" vertex="1" parent="1">
                    <mxGeometry x="60" y="70" width="580" height="630" as="geometry"/>
                </mxCell>
                <mxCell id="6" value="" style="shape=image;imageAspect=0;aspect=fixed;verticalLabelPosition=bottom;verticalAlign=top;fillColor=#FFFFFF;image=data:image/png,AAAAHGZ0eXBhdmlmAAAAAGF2aWZtaWYxbWlhZgAAAOptZXRhAAAAAAAAACFoZGxyAAAAAAAAAABwaWN0AAAAAAAAAAAAAAAAAAAAAA5waXRtAAAAAAABAAAAImlsb2MAAAAAREAAAQABAAAAAAEOAAEAAAAAAABCMAAAACNpaW5mAAAAAAABAAAAFWluZmUCAAAAAAEAAGF2MDEAAAAAamlwcnAAAABLaXBjbwAAABNjb2xybmNseAACAAIABoAAAAAMYXYxQ4EEDAAAAAAUaXNwZQAAAAAAAAJyAAACcgAAABBwaXhpAAAAAAMICAgAAAAXaXBtYQAAAAAAAAABAAEEgYIDhAAAQjhtZGF0EgAKChkmZxnHggQEDQgynoQBEUABBBBBQPS6zdJxYiE0f8d/JrwGqWcryk14ix6b+y1ERAhapIT2e3LGJoRUcoU6/xW6zeGTwjt0M0wa2ya/V1YvKFm4v6ltSQCaamxhNct+GqQS5x3T/mb0g9/f0B2A8L07F1R5jyi4iUMKfmb37WWfbNe1WIzDCuIoXiPC55AYdYSo82MATkaY+Ts+IFObkrkcZfNJ/IFVVq4QXTikQxmZLgQrJzwXdomgQFpWPB1UUHGM4h33ftUItT260ExKmtY8t13YkFsH7Yq2Hs5W9duEqv1a/kOsUOsZRyJg4pUlcMDlKQmrg1f+qoMmnn5abwZDNscZ5QerGgyPUwH36jd+dSnlZ5Ko/S1uzBeVJqDdHhERart1/Ei6y4CZQER7UkbRKibbcadJVYxQ7LlbExyxPKUahNY1P76tSQTA2L+bRG8WI1s9kSQZBlteiLUeBmDAng4ccCaAxRXGpPGMAhjkYmJk6zAZuf6ZeLahsVQFSczmpfJ2aq4UrqC213C9sovzIFwflIjxScXVca1iNSPwwSMdGUlZfJ7jyhdj7zLWkk2H+05cnDuiJ5D4smkd+Ps16zwoSAUqa8dmzTneTsO7yc5djd58emeynCAzbMQ/dWR6w7UxQczWat/9sfhv9wIYLoJ0GdUo+cZ5tsib5w4juEHDixzkgc9TYG2hjiEJpEblnSvxZofoyXEhZxqUFIM7qxiNrx5OVMFKyn60QxOdpf91xdje+F+7iGu/w17lGz76Q4Oi9C9iuSHNvpLlmmZmqEv/q++2nCvWpE8j4UVNhrRB8j6skY6OqCK703SJqly+ikh1zE5/g7MY0tevDTswAOMeBuq4u7fyiEMIax0rGkrNEsHoyAnbiA52t7v8OjQrr/wkxDRVI38jXYnmWuBSKjpUPCMcGfDubYiPcwNfvVDQfj5pc5iLSToLsHO7DxbeiioWDjrkc0st3DL1uHr6mUhAjnGTbSv8LXE59yGUVfNFIcxSA6PcPbaCgah+eWvOdiX2REvBpnje44gkrtLrdh3vmlwSF+RM3A/6N0qiSfOEHmnQxciPhPTKdYiZdiODLyOTNw/boWem71d3iQfsudQJNTqFZaxLKLunLUsWv/r4V7aEgY8xCxtsBazxbbaMiU642KfFReaQ2g8P/+8j8Pk2keto//zoDeyEYyRwS8cTYUuWrDpAyxUxyQ7BXMYKRlG5U4Cv+y67/IX7IJF7hCREsBZqQBQ4BltcAOIjhQ5LTm1OvfYJx5uYPYlm+tM2YvIKcaurfo/IaE5douR0BV2dGceuF0P29N74wXmf33htns+Xbe2tTWVbA0KGeEptS/LqexCaMm/FMV+pWFtbOuOTboql3EncBD38awY8+AWrKTwVkWDW68NdS8AOTm7crKSGe1jUTFKGm9io7+HAP9sxT3Rq46JrJt7ssT6mhwrKEx7SCAUKM7BkO9Cscpzv2BxTj8ZHvdZK//ixCGW0nPrU8brSIYMGJ2ibOBRTwEcHMNAZ5y31saeQbJRAFfaOXbWiehTP+l5n+7ue9zU0EpDyCiZ/AJbisU1hQ4X8nDpRoVR+9HQFpkejMHVom4U4XuuOXwj9mIsRaNeRRjKavl1vYtyFmeaoGo384Rs4PB9ZEFW9rvbk0GgQK/Fav8YE2ZYkqldK6e3xLEPy544uInyU9wpBhWRuUTaZfrmQj7LJG1AXFW6ZKPuyh6jelLfivuhirH+L4IazbEN9Zy2gQ94QEAQEpbWZdPbGpwJFt3qZtNStODI0YM7rYJsosLesUPoHeyr6dNqecsFs3mcHQvFjG3EksXMipLjQCRiBlC2fAEwfzJAFltqTqMhpf9kqpamu9uHLQw2NUPRsJsg7TyIq0fzLw3rj6cuWRzzYeblZyMJWiwyRjKb3XYJ9ZsgdHrk8JdblxBi8c5VMNOmWHO6++PtYaKPJobaR17cy4/sOUloCCkEpbwFus4uy2SxbMywukhyvFrGDpkbx1wh/egHl2swHzOg/fIuB/kfyAs0vl3vQEWzBBPzLqGU8QPD2DK2uUL8RDdpvh/O8/psAXhRQBSn+8wKoJBBcTkTHTsMyaUdrgr21rnCO2K36UK5K1KQAKvTtmTuTZuxShUqoUcKYMZQS+SWc1pNcMzQzhfZ95VCWnLWnaNbDajPvzTH1okGrnsKNtQLaRBuoc7n3xwDRz9+cFBSK2CCf0OFHdf7HSfsDqGtUI4+uPluMFOgVSEMUDAItiFrbeAnOxLdviZffP/n/oT0askqvilk3lyaZlH+sypFhyy8pKZT/usl8kSo2eRzOUOnQ5684g10QPyKfdb2AYMZggkgIJEjYh3J2k3WZ7pWvDdgXcdPgfGY7QYyIBmIkiofpWXGh/2I/DaPEfalv81dxv1hHmf6GMz3ZFk+V+JlOrhTkkX6IYn0kTT84o/+Xa+/+FuejoJUe4drscg7HzZFOH9PhMDrYv4WyuZhNS2f22e2xBtwppLBhfYwJFgUHLTMb4LX7CM4lsPaJ5c8t7JY0qXh4rVXal5tQxc3WMllshP6lascsVfD2IKNVrsvsGxl24H22m4ZRDCJZL+KQQ1q47NbCuJa6C91FKI/YWnJnujISbp4xtTgPqk/2C+TVnNiO4mDV7sfBlFb79bH6EaflIs/20NPgmuMpZrlUOqKxZPIVXuNiudPP8hT3dq0F3h38B7pYs+oLgY1Qme7If8J6MAqZWDkMdJziB/efkKhf7lg6vP+i15RqTa4X8rxHKZc0BAtRdU3vlMNkmyDIDS9Rmlbxba1AHCYe0iB5pXfmJmsuoYX5aMvXq8OJ2THk+ZMYGGiWQZ4fT0zEQvAspWE2YS2f1JbQMU66R3dbizLHm4J/IcNCJJ1VxRQBlxEPRdetcvLeu5XGF/1PnhZSKA3Iv36hFDbjYUdGv6/1je116weIIvX/936P+bjhhRwjuDytljCv3uDQeBThYhFARxA9ne6D08jXiLQB/s647QqrN6vtwx7em+tD3CGneqq+CNrbSGQ6JXMFx6OQpf2sPsMQ4bNJL//BHdP0HFB/z4BziRO0w6srpMuPCLIJDkCEaq6bgQVrB9Xs2tn2o+aZ8od15JIFcxhPQdDE4sIAISJrX2l2eSIeoPUv4XYpZ1bN+rztp9Nlq9R7pbrVL65jFRlSVUsNw25BqJwgjID/xGhLf/Kou+7N4WxkQLbhj02t3dELtKXBxoj1DDsBf/FSPoGiJ5tS0nTyuXwPNfgwe3b+VQVMdORzSrt4bIDLQMegacq8xGyfgmhLtm1tqIrkdKqapvaLVVAzT77KQ4mCmqLZnOlqM4UPyxH3UKGwoBiqOgLhp9m06qhH3b2bZFcttAJSREAbZ31wlmIIjW7icBWxDeULAOeoeLliDVN99VECNstGLM/o9nhHuLRdV7yyjnpiA0h0ojvZfQc+SELyslhp9oLDbNnY2mx+Hopc3ZzboEEr1lyX6lFEPuarGoNqtQtIKmAPtKbbuklbvejGBHRxvxrNN3YFUwAGGkzDktAKnOkOHQEfXUWyfXm3Ry+yZzLNv66L+Lt5g11dWOxu7WNePa1M5AhIDY1L1QJiA7UfIs56qniz4vAy6GlJexG/BuXjBk9Pl6OZG7rRTc+dXfCKuDd6B30jEj7kp6ifvWpGhTUx0gKzxRtsVMcZx2ifXptbpqHgI2RVcUEjocXd81VM+Td3bUcyBbSNt3IHNsWIzL7vQb5dpQmZSB6qX1uCPZXe1meb4c78MS/WhQs4Up3PGS65W8vQy+n2m8v6gftA6xNA31hU+swmzLK7e0mw76GMTo2q8Kzgu265RTiy1cR+qwoOXsMn/tpd7RoNnytfERBDUWIcSjwHTPKtBTlqT9R+8o+HXMCti6RORfaQ7m16Xape/knkC+DPabittLLkvEyV7QMJ4RSYWfQaynYmzgp8jYKyJOuirrTBh+N5oOkJh0mdowrXAoF3fBmRAADGlz5CDmwenZSARsfEhtYxHabGacFQ2k+WwOY0v4xf7p3H6D61NzmN03HDczS/onJho2IXocjpohEFyF8mArBZPiXiN2MaFmgmvCzypF4hlZxdoqjl1Z7K4019N73SyJX6Fnc85fxYEH3p9lDPqKSLOEsaft4wSj6xlnIx3dJd/tVJw3pRMlTrdHzqTYAD0G2RjkacDoWbj53mwzhIDFVlMb4gqUY6O/Mr+RMMl4r3aqvmUVnFHtWmkvnaQtpJ457/5mwkRJ7BMXn2zpJLC1qAgMP/scE4ieLRIC9n9T+Yla559idbpYHse6sqz7KKWZy0uueR5/RrzORdquBpAXmeuZbKhZsLhEtxqvFi1bQ9uihUiyhoZ6Bo1/gQe3lv9XWuUOCcTt4zBN2HmnYBCfOz5NOu+i1XsbDpbIgQoV/TsLwO2Hma5POJ+Lxgi9q0Ow2VPTCNXkmsKHMiHhLAdkBlVpyPyzaNMp9CwBHRUYzrtcX8YdYCNF3RohcgZxppaASwZxUNvwb8bzOFbJ98KV21050MOKg7fpmekEzwAOeKmON/2EwUW6Q0i0G8HKq0mxAaTeZxylcJ6zb28vu14/xOLEWnXKlFq01PdMvfksYPeo5eiqdVd2f41Y0EpQplzHOsp6NCNL/wkQ2DgwI+PKVKKPCmw7V4oNNjWDEQi3GCQabQ/DHJfCyAyz8NIPXKQql345TJY7wwNwrLObwbup5I2ZIiFg4VY3AamZv/llNDUl9t4fRFg3FdxNWy0MlljB/TrUEGLYk7HEseQ70yT/3q4JELYj9mhM+cCZFm2NMHdqBeQcw3hxIg1YEp6Y40K/HGoI2yxrO8Oki74kGczvPpIXLU216ZfsSFmN4ghg5poy/fx1n9TKFEN7licEkDQlwofbhT2e5QqyFrCsyJnO7tDCne+AIVAt9c/HpK+1OELZEhAGpQBIpbOUmTh/VYt6khnrFmIi44+FpBHNcJ5wxcQwjZ4RPgsYZLh+tFgIedtmzMRFO3dRx3KfdSAMqwZZEiTYiYbo7C1u4P1N54zyF04cCoiG4mSerGcbtDS7VsuhUF0xD9xscTjZclBBlRFzuIsiYXX3hPkBDg/XSrT9NYUXipICYAT+L7mAEhz412U5td299Nkb5EFOfVPkRHibFeM6UAyERvMssw40regnCLmiMs5FR8q3T94XswNEhspyWWu+z3DIm0HuOtuILQ0ZRqP1LoozT7/QTuCHZx2TWnPQAq28AWtZ2UcAH/uBru8rS73hsDVIxk20GG2L7b5pOJgBGr9OVGuTaj/fr/8f+HJ72ETFrkYnZ1i0dkYB0mIyL28iuv9GsTSoT0qrx6tmfxIFaQlJXXc1V3j8QSGfHAwnNMo+XBgAQhLViRt72klxR6kI/jQgyPyLbBHXOf7Nj1t4T4LWkAwXSdwTVyncwhYsbvcnLSWpxBXAoBWaGR6zS/x7vGi12JRyHSbAfavtiA/5pJrDYKIV2Z3wXqwkzlKfj6CVNNi46WpWwc8N+hRxXKD97tuuJQZuhkFBKeqdphp3GZWd4kZUBYf9iYhYie1auX64DHg1nBzX70vjy2YhV1zx5WnggIg5cRB4Qyb3683oi0Hj+pL3h4L2NKqE0SdRf6pGgJTzLw9vky8qAHMKi53AyVGVLb17yfUIaGDebMMhC9I0bldl+o5F6sNsDm0qLrWB1sQfTS1k7MjtodhUI69m7mE0COMqvA+PoJ5SVqW85kwjXdeC381xeNo7/5PwJNF9vKwCQ1jS2wIub3JtGO2S42UiC5DUTmVPuM6rVv/ML4mb+9+F9s5Z+m9647d7lT4kyA3qHX50UiTPLNyahWzh7w2AaWfqoQi4FmwgsqDwM5ln1QzwubRkpJf0UH0D0E2mU3n9JOhmtJ//+zPJuEdG//GM09pte8Q4Zu/o1cJz1+ttH4f8/HYZ5qkQZn0b7NK/ja6c8Tu3RelmK246X32kCAuoTZfTcNkLZ1e4j/0D8amf2CbUxn7SwRRa+gK+Iroo/lG+AqLmgyjCBdYk3kJFPOyp/J9YOAVoM6IPiuG8uzW0odmCeC64nUlvxH1YhppjSYXWEuM3WUHPKOkkYY6rG2HgPcTY3uvyCwIdRH1BWvO30/Q85vrbk/jhN6wEAyNkG1zhW7VTDEvs9b1FoU6LyNfQY5OwcRtIWfm6EfO2PvbqzteJ0MtuIgIzqZvB/bE2/esLuNpqevppU4XX0gBNjbEbIQUJYcImd1AspXa2Pe+bktGpM+sU9QzYWBUthueSaHiVx+QWt/fQwT8jnVbkHIUhe3x/FfvG3sHrEt8fR3ae7S9qNNHoCwkvDeCuQil77d3fUOu+XRA+Vlf6YOZVbFi8y+a2eDonuu6WBhtkOm6P3SghPk71hOkYX7i4U9OAZOxkp5ws3wv0UKF/N/B1DqXiWTMF1V1KnIKfT4JSnRKglmlbv6aXRggsnlvAJuwjcvvCQlnznHksB3VML4ooZ5aoZUvZfQOY6TeSOYQIGQgSgDDg0WJXbg935LH9uUwwgRUrS+2Y0yWU98Xt5ypHlqdXdmjwB7iIOez1kfotU0UtF8lI6v0rhAQvlrTRO3+r8mGU0KYXxzTOmeaBaEHAJfz75PIo6/yc5yVdLVlYV5b2vi/i5Qz4VFPVZ131W8V7RiI0t9z60LdQCCWB2JDbL3DeTOP7Gd/ywe7nuLDvKe/SrJJcDAc1x8uu351Gc8JpPaH8W4gkvbKFCyix+5Csi7aPhyOm4pKPXaBQQLkibUaNyhF6MiUb+Pu7LpW1UzfAfSgvaaBSdIY77v+uJjmLEc/WYfURd+IImBYN2ZJc0evVvVRkB8ZzmOWlDpFukAeP/2HjxJXszaQEDo8KjDG6sR+flCLHHznKBJ3ctGztNCFOrOYzdJcN2L823JjTIXGS9FmD6A61pqZ+BWdgbkR5DVieYB6FKoV29QKrUDtoKgMVt6ARhs3b8ThQ70wWEAzB808CMXr2n9jfVlMy2rkF80nKd6GcqgJbbIlcH9y+tHnrYB53CP7hfhyUh3LEzUwiapQWDdseFyS+xmaaQT2XH74HzujTNCvGg/CZ073HO9ghDjCriiUgpwlAOe45t8kK7hpzl644/1RthKpjYZvI2Od0EVpBgvpU7shIj9n5qUOqzi9xomdEigaH+IC9PPthitjqVXZn2/LbDbe6FXaIx0/2j6CQaKCDw3OD5x0VEgSAP1h5jNoqakDiBr3KAl5O5PbCqBCrVOV5VjOQgHjPTD7a0K8PWiz0gA7i81dfPbFvkomGbPjH2e67M1X+WQS0+Csp08RIayRYNo4a/VjWTs//bMboS8B2shXNioDBboLNXqrIXadz3VQ0+XpFIamkDHRVtglCxTjMNXQNb5TjBLEnxpmgPqJUAJDf0XHchlSeY7/VAZ7hqYJS3++xrbg33iupShnHHHIyh2BERxysH3qif1lR9screJh6W2pfycFdbT3Rj/MV7OLSZIiEfdXmrhtl98nde2JvEfs/9eDTPJK/gSwzYSu/J8RL/D/P01I8AsKADIHqg1OJMGfrq7xEgNYr4+vrFeQxIQUXQd3JRMcuaQ3sZfcPZSefTSVicY0nT/MeuuWgh61KHlLEt+uLJoLzkgv/R7LId5IGSBk1JCAhbfUjDIkOzVDYSnbmnlRqn4APLibUNM/2WRRkPtAtGa3yqn+y3/TRGr1TacufUW6FLTJBev/OyznT3CkcfZTmDv3TelpGRONkeI9fH16ZMqPcYCAQySKEGZwf5NWY2UZcVlqvRj7946VyNl/bphIXUVeZ3VGewISy16gx3J3MaQOH99rbuCinAxz7ZbbRbx9YHMd90yuK3c66icTQhCd64phe87RtEgSlnPZ5kTDp9zPm6bNAbMpKiMGmu+NRshFsEQ2QDt0v1P4o0G/MFExMvlmo/J6TRK7GIzR3EIsoYNIKslhtApDwhh6OeSQY08NivxeFDeCNFFtFivOQ2gdL4PNqDOFUTQmSHwswPjqtp014u8t+8CEqte/aLlJneYCvCKm/dykkFMlVv9Is1T6Vv+Dore2HiWVoQLOOtOG22DzfnjGfwTgsWO8q3+NmQ85896xuTos4jPuJsxL+SLFPmLoWlHUvoWGIK3fTvlJAmuS3VqqnI7rLWJPLMHEndS4L5jEA9NE3o07zt4TYU9HQBpuu45iUnKPYTqQON+H/1jjSNB9AzUVJS0VWQvHrILMw+jKylrLJ6MctldJnjF/Ze/iB2/O/TCJwNB37tZ6UNFm/bjs0hPlKVRr8iHKCwy7cUDT1rgPvW/mDbCriiXJadzp0urHC2iqWKF9tsijdPjsFT7dQPK9l1JZp1BzGKY1v0rqhPhggS+tsNfHMbljKSu5tUF22N3bbWJMizJZWzKttjRX+5x1g8JEGSGimy3Owux3H1DMuOObYLyTQ7wXLwmryw7hJvbDN1YMB0FtZoos4+mDSAwg6nxYLl2UJoGKT7GBmccWVKXfJ5BJ6+2QMSQo2tKv6NYC8iDh4O98cqhY6wkyyBKbvs/5KYXyOgMpRVifASmQBqGDbMXXh2cI2+6JcbOLCqws/yzHjb+5sRgEVTDl3s4Ce/YaOVDbDIB8wlgrxr7nHmgwoTkMhGv6vbpNFm7oWM4VjnaKflXJazTet+97hMA3cINho9VnX6X9FY1kSGtAARX0gSeX9Ph/IRqBVqzxAO3hcOEhzMQQtrKLTKGYnvJIfx0I6A6iwYjMn0nIS5qz4YAJNxS8KYRX7LysHiwVTL9HbPOYQfS+fdr96aet4RcLaDY7xoEBJNNzn2/E6WeKNV26zNKWBjF+qenwD+jNGq9vN9swUe5OZB6fjXB85mjwry6xF2XhsUxL0LCYgGLhkLXM7EEvp98zfVCwcP9A2T9JgwHy03eIAbnLm2yPv40vXfUWbVDZU0ZhKkoM0fZmvmQXNBFYxpW11s8k4xX+RIBeNyd4Rln+f2onYSN4ODuzOEbaLVZc/olegU84h2wqrHpB61qWfs23gFxv/CQjTb823fpXwERSZZX/V8CImg54Eaz/W1ks8LiWqTJrFM3JQn64VmxXKMSzE47dPJIvK4byyd17GdIVlE1YfYW6ltdFgIGLM3MhLyZMmJNKjUt/zcmoHSenjyDfPSKH19CnEaTCJ2/UAz4STyGq9OehOHWCMwpn5g+dWmOojOjYD84S8FpDucAu4tIWjlgbDWRUXj+kK2RYHTbOg9cGocq737MWkGukf2QS9M2MgX4XNJ3HlF0tjHhGcZ0l9r4svVqJL5RqVyUTD1kRu2KtghO+I8dkPIapxm/uuj+fx2h3BVbzD1jz1tSWaHXk+4BuAjo73y43skSILlmnxwYZfTZYBKu/ky8M4UoMbA+Z1LM9cYmkRyUgojbEM7w96U/sZWoVgQeAkH1edEXF5pwpyNZL6csaWXLCcAS6goMmLIiEm5+l7wnVNbC1gjnB2t50NRxImYqxm/vFxXQzyjdi9jAOhC/+hUalucjJgOqClQzG+tg7ciltxVURHfP4lxkWdttoZCCynEERfqqgbsQ2jjWtw1ZOXqaVKf8jwls4tO7dHlH1h7ggb2R4Eu4YFhjvw4mpCibFVtJMJbSSYKhlb+cOv302cfxEhR4cYHdIr9Ip/OR8k1heHmtNAabNt9DQwfp5R36rXKhq+tFCScxch+h0WMSZ2D98NMO8P9mHtWx65yM+yGCAH0/+BZCmvUYFEOEvmVYWTNGCuX4corWZU5cateWRpEYZv9+rZqL/uVaksQOa+Wz06leuUZ7h8NvExWQOmWE50SU2zMflLtoqAJbktecqaO62NpNmlSN7Z03eNsFd5YIEixOPweUx2Cx1bL86nORwS4VvxGtEoQoZE/cc7PKTHpJmll84SAGKAIrmo03PxwvWTiQOcj53x1WELVmHb34St4aLpHNvzfrpxCC7LprvEBKy1i7wn4W7Wj+8AEW4pIn7Mj9DPa5SgW/TuFX5R/PP2F1fe+suodg7h+3Q/jb8+j9H5I+VL219phbu55GqLl05Xq4Y4ATXKjDozar63oz0enmXvjZTK3oRnIVD820Lo/gOr7/vr7ybWrYfgw1ZKFTZjIp/tTXNOFfA+VPFH/rOwUJboBgyR6POSrC/MnIyEpsBgPmQIGHaMjE1EADq2Vy7nB5WLnLT4jFkVXOq1YLMbrEiT/ZsVzdLO+9OzP/Fd6+kQSQLDD/stzWzMxeVU5bep/SdrhVWJO2shkdUOSz2CVJg2YLiy454RPSQD6cUpEj8IJkSPLa55OpdrWmeiW0UMpR1fHvidSxxLFLDEk+TDWueJg4OfY07CBlUarWtgc/X7yzuxW5co/nT3YnhjaBr0/4UrAGGxYDcjkRxR64ycxo6ETs7dRKrvW4rtrznpMAgK+wQKeUk2YlOB0aHLf2IgsbQFlD1fPdjpP8Qk9U8uL7N1jzVjCUD5/19d9r3YDKekMzyyQS6o77H+38scEtINvQBB92syMBlYcnd3ONGijZ0e/2BKEVrFty9BcaZss8sbxQV312+xFJC6c1jOAMaj1VmJ/xDtu+pApezIIHgd418aEwU5uN2V4yDPdrZSawuESS2lXcVSW/Nf7r+qyHxj+z5SmQakrHDO68pNI7BITCQ6i4rlh4Gs3aRqVpAsKLBq24P42jeQu0GihyLEU7P90w5E6Ig/voY9yCVUA9kWV0z/HcQSpHY6mkgKhqugXrto40/82jB6aER8K3h9imPVJe4AyYGQjOn7cqml3pZM3DVxB13r6zi4iN2Nt0qXsbUFL1PzH/oajbCt+HA45uTPQtPlR6+JljlGyQYpd9MamUeBEoltNDa3T0qORaRHVGR5XGMOXcRHrtlC9XzOBvDEDmriJb4MbrQjmXqZM6cEZchjg0zaDWHAj7pDBQIf/b1fbURfdfCyA0ayZ4UFgmBQlwam/Gs6ZDuyDtxkBZ0a/ECy7f+zvHJt5gTCqLnn+h6rFfQ77/ugkyYe59q13sRHKlfvxg5ytoTyV7Q9VD8tCpMDRHxovz+LjRkRyYMUHoeqlA8eqtzYZNUVpSCJLOO7TWEF94E3dPeA01q7DtTJWXs/jH88RHXAPIPEHukCahkI9MfPLA9QIzL6Kj0lrtWcj2bYgnkVJK6sqKpn4PubhqIwK2wW+2+SCbu6e8es5o5knoy7RGGvYuDgIcK1MUiQWUpLH0jpdzlhpsYMMgWdBE8CBNLwV7vJJ5EyCpLqqtK71dHtVjvDuvsedOZQHB/3NesZ5fl5OFFo4WF/SmpDLOqMKua9fc2SpQlJApHEuGVOEYuUBskvoEa046swhvhfVrc4kiBW4R3GBov5hdCumfuIsI2jXo1c3VfpDZNuDCLYz0uass/5Z6xq836IZVlt3RmgsjF7KArJhPH+7QkO8Y0tfeSW20QYSdZxjqK01bezk7y8JrSoGJSDY0naOmS0fh3yJjnViv8jPr05QTR9Wsa+oAfK8P+6JJYA/Vk/EvVaQ32clirEKPcaRvwrZiWCUIp6mq5me/nD4DuVKxecQEKwzcBmQOz6FK1yszDwTMCxok9pCZkcKn3tMug/ln+f1o4kPQEZLd6fuQmuHUN9qBhWYovmPugs/clobdC6gCe80FcNSx9r52z8k5ZN2PDJuEueS4UVKoBBraBffjOi8wiLeDAmv4uWvHbdFvKre5stfRRoe8UBDWqgBPMA4OqJgbo0DisIoYfqC0qPLJgTc5mvMXnIXx8j2hn+NVnFLVfICBGBOsqTxgFUdvMJ3SY3dg6fNGx1OfHzV9m3BhziZKpXyTsmWhEPRoKAUNFy1oyDn+RV42rADSTM/uRT3h034XKCn5z807dsGFCny5ai0fyQm0G9SXAlqA0HxxnevHfOZ/Jwod0iUNZrlqtuUTp8meSaNT/hxn3dSQiWrSzi4dU5vwoa4UWIJyVxe/hmMnld5hAvb2zpwMZ7dzYFRABcuzIlMoZX9rYACEk/0epaSzAld7RXTOa9O08Jdwfr9tnrTC+L96MT9mqU1wUmNIDNoSd3Q0LfHgbp8Nllz4ehMr2cm8DNRRhXxYTDMQS1hXWYQ8nmkwAL44ZUEB72cXcb+mDSUnPoPRKoSRjetSwfx537LcM0GYM2aNJVlPi3VLJHMrEiUz6BfXvWRgDxQMRm24mhGa3SkB7uFluSeXM0GPH/SBTMKhRDESmXYudEfCBUG27vI/HtyrfEGHOAvLNBb4GdyzVnfTmPjmoyNiMHEFpQ8W8qN5gAWlw2zOswj31c2qdYkTT7o0H/ApXZUPe49VrIJuPEhavlNwBJRJC6oSD/joXCyFrnVdwG6B612tbPmmdQxzLl115A+kAEVkJoxawwZFyn0RWoimqpevS7v5jbmu0ZGn1ITfZBFjSbD9XIXYYfYw3y8h24YvKxtvb4RgeZkqjwruZnsjoNhRSqpdXJ74oLrNuNCq5JXf6llg1Ru0ZpA2Xrg6P0QtHud8PEY25Dc6PNTOz8h0+LWwFHI3rGFpmbTk7sVzukRcP/BopkY1I0miWACGgkL6bOKhinLzAqdX6+ayJ7+NI3PnNNHTD6XG0UX9cKabXWkR7n4cT+rNeZGJU5MyFJMlOP/grsV1HQO7XLsbZGtjn5nyQ5meYmIfOv2pxm9WXoYdjwFh3Qx3xLHRbIfcqHZWDZF1+p+J7fZ79gkXamevPurQ1bt7U92Q4eWSqWQDtER0SE7V96pGmTHC+CKU/WM9ssr7k7L/zPFfy2FqBFrJwZO02xQFoSTKp72aTWApcb/XCm9jeNYpxm1K3q9fCKY+ElMM4BzezTfo+LoSJ9QsV1Z9PJhVhc6R2xHMEj29SqDH0gCNp8RIsztxKzI9MDYjCVyARx52oyeBsLf0SscL+5M4GCtunl2soOZaQbX3cAs37Fb5v0eLHL35TBZssHu4dK7yPK1h/nWWsQfw5+L1AOWFG/RK6ghvTEmtnmAMuwOoCG414PUq6jO4ZIT4onjlkFXAN6Iu8MLlNZCXSSLZ3GXKzYnWaxTMLdXnXTMLmD8QQkx5mgLHUpDlkCwZ8qT2ET2MD5+zR+dgQN8scSrC6FlN4Pn3m68XSxVRWyF6QA+R2NMKoCVcQckAG1lT2FQ3TZZvLihiYQqv92EburZ/gYYwBC22D0T4+otOawWEKfTNJchNfv9YBGhVrYq59zT9Gv2zp1r+C1gBe2Y6T8CXv9y5HbhQmcFoYI1BdVNJGAZj+skPKYTD4F9x/LNVCrD7FUyo7FGo1u2VEtCyjTWdCpyv/eO8jIo83zDHLUchR9NCy8UAd8/YWSPd0ET244VVpdFLeBr4fcWifVTaOx4qJSuZD3ObPf6OLV5ljvu8CsjykGxt8+Q0AjYqai7Wpnv18UDPxA8edqURVLqorofn7yTTRSXhbGIMCIeW7vmahNvh763c/StMPYdhj5DpHE1KR2+C4EPKWB1Egqks9JW7ud9S/sbP11PG9f7TOznpIkbLjO7ZjTT8e6XGs0Lykh6Zb4OY1zqmeUNy+RMAGzYl4Znzcn5wnKtqlo/p8MOUcJ9+vqiRQnaDJsTlLFD92o0P1euM9FB/O0F0cAKA7o1gXoSfM4rixV9qPBQ+IUuB0UPe/hU74BP7/94cXs1HVByUMqqrzeRPiWur22x0NA77p1gPwZLLmuLTegLeMPu1AlUxaxvkCoNv7xRRcR+h7qPWLxg60iZCgsYohk0+lIwW9BDnn1O7J792pwjGDnEHCsQ4c2F/DSchWKWH5WB0AV2u8tFtwDfj+f/aFzQRhzPLgBjpyCYTXxsb49d+8dd3u6OHxNofbnQuI6AVK2VAciWhPuFRoZJ9K+ujTcWhZWeyRuqKjYpUEUNk3miA2MVobojDxN9FF+43qQ71XXTZV/xaMS8wKn+6sL392eyMQcfaLS5qC0utvL7jP4hsfXP9lvk/UBaFPVGZGV6z17EeWSpLHN9R7ueOM0XUTNA5A9i+06mDgaFGQlrWfT5+3j/eQ3L5C7U1P27z4PaB9VGP2nm/thr3EvX/YLKm0Wq952mJduw29S/pNVg7npSfmF5opdRoKMcGi3gTOUSYFZ8+5A8p5qThYGS57F8rObG1IKN7bWMTkSAk4dv8Ha8wM2OWztzVvdy8rufwm2lrCZmzh6y7w2/8MmglUBmOVpUDzZumim0nPh+pGDsZDIa5EVYr+X54DCzkvAtPxYnt0LEWao2JptWtS5FhO+5vNQ0DjF0MHfD0dokAuVZUjBZdxCKyOpyE3GFn/CLFnjzGixQdh4vrJme54xXpbC/NEsN7R06plCMGAX2LnT1KDo2KvSarKx/VVpgfXES9pNHQ/dElz5t7s7DwtC7B9762F41zY1Ye/92YXAyZ/mh/CSiBOKOFjc0AVGEJLh1IXnKiFfbPnuCwei/wOEsAg+YRYXE5wgJ6QM3n69u30kpi4vZ6GnAaqRhqSqGS3wkwq+prR9aHaUru+9w7AZXU/PMvek508QibMvLpf8Wuc8djGFoNeTgEadCaFNrP+zxscFxMLR8Nv5mdsiU2v/I8ePZQ6IhAKDTVIYiObmcGxa0yGnm8RnY/ajIpCOuLX8RG9cMQsfdD6ZAqBxuxpjYFSiaU7jJlO3pRYQbqx18OhD6mx8mfi5rSc+sIryYQHRyoCxUGHUvTRq+CT0zGqQCRSmtjKEHGhS2zYVZ6HZCE+TrGaDdXZQBFF0ypztn492LAXGsbRQLm2TRs0/fIDMlrm0aCVQ7TAljLUtGed5PjigD7pdmRrVlf5ikO/R2ATYLD8h31We6AI3oRwirs7Tx90Dlthm6dO0rIsgykyt2XDT0h2lFehGllN+CrdNNfrZPNVTktv+KHKp87oj8IYZmR2IXOAnBVJ3obbWd0E9qbU0cjranEULLJUrlipq5A+YOR3hS4fomk+pu8AetcYAKMpmdeWdqfaqii+D2pfU8EspfdCTH6r8rk4G2ruNQpVjgSmLz6UHP+x51yhibUyB+KnkjX7I5cGmPXKqc2+dnxb9ryZBaAiGVwQALUy8cLJwM02GymuQ8guM7WUI+PSQka1JPuE2z8hPrT8hGZV4oVjybbOMgZVF0iQmObASjhjzMhBIFq60KIYJfwyI1PQ27lbD0Gyw/r4DFv4mmmtkrc9N0JbIVSwwZNgZM5qmIJSn5u/gXdD5LEMVCZ5xrc/0iexC/msX+ITZRBk7Dw5J6iso3lV78vG2yrOwS1EgdDn7AEsd4NT6SnD0PeWM7m+e+XHnLNQVxrHVqFthcTAw+ZUoq/XoPInwTsZwHQk6UVEzYcA1z9VzwG2vnwlWzuFECubQq/juWe9dqQ3tABz1VqidOjOpUqigMeWcctfw89i9NiuNATz38742myKW4gRxd8pC0JzTowiIlXXshu7dd5eFh3tk++OApP6+sq3mZpba/188AO+Fo+Y4cBBPkxvhHymuuhwPfVDz+gIuEpBDrBZ2Omc5BEwxYkypgh7oeDXZwZ+m1nyLPMDTnw2aDVXfgfvZ9gPSWCseqHUoPy2yz3tCtJqT+zS4eCLsQ9GVyR1YDozPC/z8ELupUcgGRaconPWYykJS1LGZSk43JEZ4QFz5IP/oTg9449AtIxvVNG4TXxKPA7CF2vOGJtNoqzRZrNIxELj5dhCZYzMbXxZRHAMEE2T+Y/OlpgNYVGH5wujmCEAnOfMR3S9Fqsob2CHzuhAICEja5KSOkq/1djWf08UvGkN3BDaHzVN97XTvek0h6yrgXwYuSHnW/pCOS7NBJvbnqJ3z5jfOXpozdbQZ6mVdMJu0HCOOt2LH1Nk7j9GQkLu+GM4gjgu4xzV9KGHADrFleB99CynBxmRIPbjngRiei4fUTzhYRJkt2HhOXEn6uflGvq0uOMwJZwClQljJo9/bdKPsIoZfL9S9mMx1IzufnoaAxONON9U/sKxFX3/PY9/PBUiGrXi0TU+/3EDOqDh3oMm0aKM2ipSLm/j28H4asfoDr8yoxLqW6jJo87vCPgWCvFoj3yWavxwV1RwV2keH7bVa48vnEZWl5Xv+vDPnhAvH0bFcWm1Z9lDqlmprV2tbZ+8LjeqGpJY5baBweltX10L+iUr8Inq+zrW2whJYZfIuud7KuJUN1J1JRQx4WJYra/fhJzgsjrNpS+DpWPZOnS3/uNt0xxIcG5LD+JmmpyoeDl3tvmpSWs6k4kL4BC/++xnwOu2dkVybHVsfP138ypYli35V/h415dm0FgpZNgDThbg4li3Rks8rzFle3dk6bvQGOQxeYNOcA6K5BKpabG8YWgS4wWj9vCI7ENqo5Ari6FFucrwwY9lPRdiZ1Z5COTMvJXuUd3JQA8xewVvSk+r5JTm3lDZpBuwhoX/ynBaG+OAnmW1mamb3icgn8iud43TkxvK6lCBtp8Cj9R9QDwdv4EWXRV6cUWPwth9otasowhz/Z3KE9gD7Iu035fMZzGWwMLyAM2pNpCxJPUxl2520A41kKTY+4XqC5XfQny7hslWGBhNT9GFcwkgEsAG5T4Opdo2bC1eT3LH2q6ziMtpzKVO+BIqIf2kjAMj5fbiGC15R3hI2/0EvH33MOjt6R4/o+Ev3g1s0oJ/cy1gK86/NBsOzcUarK52GnyrrHWJke6drUfnQpubjEAT/JG38AZ6XPvX5lHW8Qh+5JJlHsAuYZVlaI50eZAJJSOA3HjW+zVrj9x3rx5Rovh7I+F276GJeh+7bGx00AJuxh8hZPQXUX94gkopYz6OZG2jImz5JSY9DkaKSWmRR89Ct/6Xbmvqh0/D3WYZD3ltQG88DEJdq9/onxirFeEZgV0ahXJWLHkbOi0MqN+SQOBwhB3SkmVyWbkE3uA4HwK7YPJW1fIkT6HyZoDmKThASrPgR1d5Jz0qoP+PSelQTdtPk2PsPpUXnZIfXLPiUFAzrn4gzvV60miuIzs7KmLNmrSAxg5lmY26lSMR+yhoboi6J9R9JNAQmx/cvbSAppSlPZ8QqxECi1mMVGpuI/SAoaiX5wSCRTe4/wiosj8bTE9CHolnyix9IcN17VsRGl2o6GC6d+dnrSEpYQxTdcxkh6GgNLbOO3lskc6KesfGRtBfmjt2gpERexXLiJ5A+mj3H9reb00Ca05Y6ida/or1/lJPGxP85h73ZJdIPJauhGQj2LCEIYteMjSb1iRT4ngXtGoJbEI3952+5GQxB8HnwpTJcYKv1ObOxqxzPmhoCAW5Nl5Hs7CbOHiw/lSGcIe92u9hjREEftqHXf8oalF3HcnAfqP3oVuFtgN93WKkWjvL6kR+HsAAGPNuXxUHex3L+lK48LWe0HvsAP8La6UtX4lLTH42vV90b5BpFO0QssL9SdawnKT3cHu1cCwGpi5dIo+EM6Rc8if9/9iBCSyrZxCp+3DhIoj4MlboXmTcTGI+SLo4Nn8lTvXFVT0rm6evWh6L1Ryk+r4s2c/5BUrU6Z3y1EEJxs88YlW29SyHwikROAo245kiqBmzMk6+GarOYzjswUaCwDi165xDCho9b3woXGt2HLKkA0YoNB4fK4FuoDTjPDsuVouD6lDEfG2tCdKdrbTRFq5PcQADbh/KHEqU/5JegLHLtGIl9WYcnchyAD3F4dXt35VzOFUDMsgDyN80jn+vxkrMKhPVPaizHidPSGbXL9fK0a8SOoVdu9dtM3YAc0ddzjZ1NEb7eUWqR2ho1fkn+yxcj15q+dN0BX0uT2OmMxWKTA/dz3lluGHytIB6/jkvYp50x+VPpfPXBzdShXFopSY0FbfAlmkS2QcYD7Yg59TA2xbWL2qiG4tgAVBRzs6AemR6MB3eDo2k0zkjceSasoOUeEzU3XI19XvAy5/aZF7XO9dSLXzYIAi6u+RB0ILLT/ty84ksY+/rgvhrNwtI/KwAwxx6ybWIa7zca4j67iq9opfBNWvAiFFwsTrueK0j7ukMelLH+dPv9wl/+S+sWM2muErkHYOTyMzJmhvgi5M87dr1q8WvBizpg2roetbKovN0vMAsCS40eTIMR0plTVssFUUyME+iZ1y0q+IqroAArSPTX6KIay+//4hz2q9aeeYvcwiD6jL8HfqiUezs873y3BFA8g6knfltdj57sIJTMdkTJ4JIjBV904SBeywXBs38Wd/9xAlUx438cKd23w5mOi+BoCqAZVQx1TqnbRk0pFfsnmkk885Zo+Ie+JjK3qSWFDisAfcLPF6qoWb+S6Tl/K3rMb5jqDLM+mRdFDGh6oyDeCm59fVfRzE18Q8ZmwxLK0CcDVI6OBLw2yKcOvxgdt2wKqcHdi9GFHecjRsmMFmX7YdVRKKxXZkxBgVyGI8EU9+qnww9Tuc2pcpb7pU8lBbgP6b2gSojBcfJGqWsQRbdVYuCVyO5BWOAxxfWnc4lRmC1Wn3JxwVIaol1qCCoN11kxyMRB9MoJu96DGuQvE32dEoGV8KA1ISTxbs249iOPo9qSAQx3pQi3tfrJJgz12AUwUz9rS0FFfkKWgVS4eH4MJPotEIuwzIlXLtHF0OwZxueFx1RvVxNbvOhz1d10H9cUyalYfzIbvAG/xdxoESQ+rQqDl7VtC/a5+Wx/HrioUI+hKCW3K5fraSXiTig6J0jm8AWN2B/6JC2T2onNSbH+kV2QgRzrmskELHdRBGnGPMovOXFlE5qumTAH34xxgF7QT7w+V1hG4pPEjDJrbks0nnOeVOxJNKrHyeWy37IATO/SsHc7J0HuzJtTwSY8WyXnJdaWVJIUEaWyK/F2qRculrZTILtm4UK/2i3EwN4vHf/W6Jk4ibbfccx+jmPfVp8pBo4R4MeQYXEJ1cd0SKRlNQZ844RW5/nFSKBvHCTayxb7zZBfHtPHx9hIisgDxRQJ9qXni9csa2Tq7FROKjSA9AnG3Jse9H4aA9j6MCDYAF81SdgAQ1ZM+TqY/SGxE0L6TIGDqsSn+P46MA1qrTrFu8FvoRX2ymzKkbNJvKJyrbA/oLud1U4LsF98fDNgK0LwImmbn6kV74a7jK1yCdmYEchH+B2iro3LTpVKO0wnH8t3KQp+DliMsh8Vva0+xh9HJ5YBmf4mZ8cEuyyVzK5r86E8mbes0JALMFsF2SZkrRgFs0fOjPX4RiTxvBH4KF44Yva3rcVF7LaPCLaPyP3Xqme0LNeg8k2G89WTFdpZ4l6mlcwzPKRBd1vRqaBwcpWTDKt/onAWJHm9bf9N0zYyPvkrkmN1PrMdY8R3EiV4LoTNE58zlpF73JKGCC06w7mg+2poOrU/APnMSRl9+K9FvTjMCCwqUdsThW12WmqeJGIPj5mSExgV2v20jJmjfGP0UbGhn9qiMYk9sLF+GmxiEADn9lT2Qi7jvkF9P8u6Obcn7GHDMbEUeI5LxK+a6ngdfcaTXOqqes2u2KhlbmS3TGTgMhO+PZbJ8eXVxpav7RHb94a8fwVadPXEoEP+4iGO5iOY0XxSP0ZlocKo/tnYWCDuOmvaRQEsSAC4N9+V7hAgwMF436SkmeAou8chB9qQvPJQ9FLCqIGeO1DGhUfgZkm6u3yW6iuUHtj1SgmInS2s/q3DPN4p46Y2Rvu282ojMnGm2E6ZTomjzugF5EDKNEUImwEi0ghoXGC85Tgf5OO0cXk1gomZEbVhf9pC2R5JJsZfzKaaTwMLP8u0VpUXX8GfoWPBPqGOGM7ip4kwb2nDpbj3e1iL5ZnWb3kLwiXfPpU1pHXzhRltSfNuvaUaZl93yuIa4SFiSTf7ecGESOYq4tV8PoVvv4luxsA/SkLFZlxLF9RMwsTAfsGsqupPRljEM5IaQXO/OcJyj/E7+xlLnuhwsVbBc8yvB9VHfmdcUG2IUMn7RM+S6QI8W0vDMlx9D/LN0RRRHzHmg4aOW7DSkk6qcND/0GAKt9Ej2uPksz4zeZr8UeGdwBH/RJrhif7TTQQsZuNZlN6uJodmOUBzinYO3K3UcxdvNlCGaVC5GrfYJcrkPDBAnvfVxZNJJKMHKYfDehKF3fEgp1InjMJ50cGFIlk/fAVahUpRlzdW02wL6XRTJVrxZkIdpSIORkA2QidzFIdnR9bsFPvFWn9BFedC1boTKyZiw9umWwgcpsut2eH+noKnvpPTR7Pl9mVzyv+EhDD2dyzctq9YYcAYR9fvmDzWPJd0w9pLPgotYlM7nNgpqNwhKmUXe9/mEHie4jYSdZF6DfN/82+J+fysSen8Fp1OUM3rd3OPOFihTbbMcw61mG/Npknff6opbDRjgPOjDLOIbEA6dfixrJ8lna2kh0gjCE69ots0J9d/b3JLzTa7KpaUd7S0c/vwxd9PJsaw6CncXfaK/A9ayAy1Jv7hd65v0aqwlDkLa9KIVSxx7sOYNGp7KCsEzfH+e5SmJUJw0n3dqeDyF12Sayx+U5YWeDeXsvQlhsSRoqmnj9HQXVuQMfG1njNOJSgsDR79x12f0kMNcmgx40Yq05Uugf2OxXHfA67FWTtZ0aVQB8/q4hRLd5zph0zkXzMbCiERtmo3ps30BQkqOMfyGgJ5eDCoQ/6xaL9rOGvgKFcDVJHmL6Psw3V0h2r03FJKAx/oEsIUttWN5wjcXHB7aCJppnzwncytW40mSwU+MwuWh7pNEeEO7XPWwpu/SSztc89ZfO1SzAKE9FXlaJBDcYptgSpU7i7ZeHnwa/hi8c/MMBotFiOlEU1bdKvDFsSCFIBsngx0Udnzht85StlAicof46Y8rQFK+S74Q7qG0jJa11nfz6ouDDUvtNy/o4gzu2p6bnmdwlvrPNQbQtsc+eX/ChSnjvWelemZRI405Guk8sR91HoQgP8T21jRqt/gVSEwNdozE8LebQK3EoWRY2oxU0Bye1ppJ+z/2+8jbldKovxrBIjGDpYpe7ZsDT6/7AB7stO/BQ6nMQnu9IXewfCrEZQvh3foiBWgEoLqHaYK147DoY34cRua24/WLjRWbNTWkGaHBeTCienTIqj9tCJV4nZxQkCzf8jn+V4ErtkHu1d8Vjnvazmdz/V97DycgMUCvOsKjcwW7ryVcmKph7msz3xx1wCxDUM5k/r9xhfBnNJ064nARvNHQoOm9sVizZOMDFY/U7HlthzbYjRQxSiTz3xoDBByan5FhVyEVl3ak2uGVX6u9dY0yYUlFpVDVRQv5r/xbsk1R9sBUWdKPeYtQso4hrluNBqxlN9zrV/Ic24dyhasZJL6UyagVcAUGMeXDVvB6dxZWaTLGC8uusIMfghXoo/AAKX32JDN/f5j/XHukFAPphP1dwXm1vxebQX+xAu4DzXdcR5Xnm3EWUr7hYcnCyUa8DhjoEwY3Ob0yK9m2lXNMzYV/FROC7AnNaEudtFaDuP6BRT7GGTvkz89K/RWt3jRfLAsnVk3NW5nLUJ4BN8MfaugpSID7TuUTRN08j2Dt1ncIqujJ6NIzKJR7jPJTpGuoc8iSoiOgB6zLXJYyeaozcsuFe1rsKTuTpgNX2+o46r1frVtZTJ8H/kBRbgLtmglUDoY7Buk85VjEhVW4ZVxTi0bboRNWFvJPX/BUvFISdtgWgp6rWhdU+u8159jQXPWePg/bBeIHdGKyFi/Z1TmAfgLvaXIVFk5c0pGkg2QvJexktzHkZgsZKudatLwxsL+LjWAc1tzJbnQW9e4dNegZz7Qtbf8e+XedzrxOvGZYgeNCwdQ8okWS6gsPE+M1JwoxoPCwG1vnAzHRd1AsXl9Ek/Rco3157sj8NnKM1ckDEYEAVeVZcyUYmm1Rgn3NW5OtVExYpBYNcItS90/bqcz/Sj/8H4ZoWPg18WHLzRQLh3N80IW5x3niENx0jWg0M4Ow9LBOFTdvmZv956tlA2yK597lSaJThtwo/OPq8FkAFbgOHZr+IyTLOoCHU8jbz9EKPBBv2tZ6TOEmGPhr/IZa4kINZ0FL7+raUMeHBaDt3yekj99XoHG2ifrEOI9quKlQWOf+eNmq1LYt6VWOR6oBkEQOw7B+tg8rMJMrlsmy18UBK0Egzy7+r9zMpVS7DCdraFQJoK8X3PrTDzzR8fWdwBBMAQn9NRRwD/L7Hd/jkxFrFSa1/vx29IaJwSyNkRnvKq1lWqW0zX/k7CbXYpVhlez2q7sYkhzEp6MaXRiUqKi9+qgxx+TPVsiBeK6XthAET30ZOimXCAyohXQjJ0UJHz08zECz/LVujXl6fMQbhCufUA53UgsVEAMpoEvgqVVSUVlUW4LF6wDJBpEzhw1l21ivzhQfzFqVLXP6zuZ00z/xZLK2Fhhg2cL4cecbNdK23HcokidEyYAVdRJdyR3X1XiGrxT0X/2AD8gaamY1YCX3kn1IR8mDqVvUM1n/UZzgQJte6QGI0HVjiTLryGTM7daVd5a/I1dzHMyc8dlaCm81Hh9E7iNa4S15miX/5NnqW8l+0g9wDUklJayLmYybf/N8NvgrjKcegD4kJxQAGoNPTARFKyVW3jIX0swt3s+5tZ54nT2R/X2sPnjsUCzb9Y1Cv522X4BFqml8ASKquU80LpCok0X2BFXgdjlCBnP+gMuArXs8nq2Xf7ZaDbZHvINvXn1tJxWw4go4t4SxmFhIZw0BO3+tdamxam147Y6NCnmQKPo4NjQVsWu6ZShAVJvnGe40qpgW974PGpVaanvs1GWU6/9TTCKCOZ98AllJivJLf68l0ABPUpVRZnez8JYTGCF1fTfgGBttHdBfkSr+s;" vertex="1" parent="2">
                    <mxGeometry y="50" width="580" height="580" as="geometry"/>
                </mxCell>
                <mxCell id="7" value="&lt;h1&gt;&lt;font style=&quot;font-size: 72px;&quot; face=&quot;Times New Roman&quot; color=&quot;#ffcce6&quot;&gt;Cake Stacker&lt;/font&gt;&lt;/h1&gt;" style="text;strokeColor=none;align=center;fillColor=none;html=1;verticalAlign=middle;whiteSpace=wrap;rounded=0;" vertex="1" parent="2">
                    <mxGeometry y="570" width="580" height="30" as="geometry"/>
                </mxCell>
            </root>
        </mxGraphModel>
    </diagram>
</mxfile>